<svg xmlns="http://www.w3.org/2000/svg" xmlns:xlink="http://www.w3.org/1999/xlink" width="22" height="19" viewBox="0 0 22 19">
  <defs>
    <clipPath id="clip-path">
      <path id="Path_20195" data-name="Path 20195" d="M264-23a.476.476,0,0,1-.23-.059,33.442,33.442,0,0,1-5.352-3.815c-3.6-3.152-5.418-6.268-5.418-9.258A5.467,5.467,0,0,1,258.552-42,5.927,5.927,0,0,1,264-38.423,5.928,5.928,0,0,1,269.448-42,5.467,5.467,0,0,1,275-36.132c0,2.991-1.823,6.106-5.418,9.258a33.409,33.409,0,0,1-5.352,3.815A.476.476,0,0,1,264-23Zm-5.448-18.131a4.612,4.612,0,0,0-4.635,5c0,6.025,8.559,11.3,10.083,12.19,1.523-.891,10.083-6.169,10.083-12.19a4.612,4.612,0,0,0-4.635-5,5.107,5.107,0,0,0-5,4.3.453.453,0,0,1-.45.352.453.453,0,0,1-.45-.352A5.107,5.107,0,0,0,258.552-41.131Z" fill="none"/>
    </clipPath>
    <clipPath id="clip-path-2">
      <path id="Path_20194" data-name="Path 20194" d="M0,0H375V-792H0Z" fill="none"/>
    </clipPath>
  </defs>
  <g id="Group_16103" data-name="Group 16103" transform="translate(-253 42)" clip-path="url(#clip-path)">
    <g id="Group_16102" data-name="Group 16102" clip-path="url(#clip-path-2)">
      <path id="Path_20193" data-name="Path 20193" d="M248-47h32v29H248Z" fill="#949494"/>
    </g>
  </g>
</svg>
