<svg xmlns="http://www.w3.org/2000/svg" xmlns:xlink="http://www.w3.org/1999/xlink" width="18" height="18" viewBox="0 0 18 18">
  <defs>
    <clipPath id="clip-path">
      <path id="Path_25141" data-name="Path 25141" d="M346.714-390.286h-6.429v-6.429A1.286,1.286,0,0,0,339-398a1.286,1.286,0,0,0-1.286,1.286v6.429h-6.429A1.286,1.286,0,0,0,330-389a1.286,1.286,0,0,0,1.286,1.286h6.429v6.429A1.286,1.286,0,0,0,339-380a1.286,1.286,0,0,0,1.286-1.286v-6.429h6.429A1.286,1.286,0,0,0,348-389,1.286,1.286,0,0,0,346.714-390.286Z" fill="none"/>
    </clipPath>
    <clipPath id="clip-path-2">
      <path id="Path_25140" data-name="Path 25140" d="M0,0H375V-792H0Z" fill="none"/>
    </clipPath>
  </defs>
  <g id="Group_20856" data-name="Group 20856" transform="translate(-330 398)" clip-path="url(#clip-path)">
    <g id="Group_20855" data-name="Group 20855" clip-path="url(#clip-path-2)">
      <path id="Path_25139" data-name="Path 25139" d="M325-403h28v28H325Z" fill="#47b6da"/>
    </g>
  </g>
</svg>
