<svg xmlns="http://www.w3.org/2000/svg" xmlns:xlink="http://www.w3.org/1999/xlink" width="24" height="24" viewBox="0 0 24 24">
  <defs>
    <clipPath id="clip-path">
      <path id="Path_20142" data-name="Path 20142" d="M320-373a12,12,0,0,1,12,12,12,12,0,0,1-12,12,12,12,0,0,1-12-12A12,12,0,0,1,320-373Z" fill="none" clip-rule="evenodd"/>
    </clipPath>
    <clipPath id="clip-path-2">
      <path id="Path_20141" data-name="Path 20141" d="M0,0H375V-792H0Z" fill="none"/>
    </clipPath>
    <clipPath id="clip-path-3">
      <rect id="Rectangle_1108" data-name="Rectangle 1108" width="34" height="34" transform="translate(303 -378)" fill="none"/>
    </clipPath>
    <clipPath id="clip-path-4">
      <path id="Path_20137" data-name="Path 20137" d="M308-349h24v-24H308Z" fill="none"/>
    </clipPath>
    <clipPath id="clip-path-5">
      <path id="Path_20140" data-name="Path 20140" d="M322.485-362a2.24,2.24,0,0,0-1.982,1.069A2.257,2.257,0,0,0,318.511-362c-1.333,0-3.12,1-2.306,3.746.93,2.679,4.3,4.255,4.3,4.254s3.363-1.575,4.293-4.254C325.61-361,323.817-362,322.485-362Z" fill="none"/>
    </clipPath>
  </defs>
  <g id="Group_16049" data-name="Group 16049" transform="translate(-308 373)" clip-path="url(#clip-path)">
    <g id="Group_16048" data-name="Group 16048" clip-path="url(#clip-path-2)">
      <g id="Group_16047" data-name="Group 16047" style="isolation: isolate">
        <g id="Group_16046" data-name="Group 16046" clip-path="url(#clip-path-3)">
          <g id="Group_16043" data-name="Group 16043" clip-path="url(#clip-path-4)">
            <path id="Path_20136" data-name="Path 20136" d="M303-378h34v34H303Z" fill="#fff"/>
          </g>
          <g id="Group_16045" data-name="Group 16045" clip-path="url(#clip-path-5)">
            <g id="Group_16044" data-name="Group 16044" clip-path="url(#clip-path-4)">
              <path id="Path_20138" data-name="Path 20138" d="M311-367h19v18H311Z" fill="#eb6363"/>
            </g>
          </g>
        </g>
      </g>
    </g>
  </g>
</svg>
